<svg width="62" height="31" viewBox="0 0 62 31" fill="none" xmlns="http://www.w3.org/2000/svg">
<path d="M0.140625 21.6172C0.140625 24.1172 0.6875 26.0182 1.78125 27.3203C2.79688 28.5182 4.3724 29.5599 6.50781 30.4453V27.0078C5.36198 26.3047 4.64583 25.2109 4.35938 23.7266C4.22917 22.9974 4.16406 22.125 4.16406 21.1094V8.64844C4.1901 6.48698 4.77604 4.96354 5.92188 4.07812C6.13021 3.92188 6.32552 3.79167 6.50781 3.6875L6.46875 0.289062C4.04688 1.2526 2.39323 2.3724 1.50781 3.64844C0.596354 4.97656 0.140625 6.78646 0.140625 9.07812V21.6172ZM55.4922 30.4453V27.0078C56.638 26.3047 57.3542 25.2109 57.6406 23.7266C57.7708 22.9974 57.8359 22.125 57.8359 21.1094V8.64844C57.8099 6.48698 57.224 4.96354 56.0781 4.07812C55.8698 3.92188 55.6745 3.79167 55.4922 3.6875L55.5312 0.289062C57.9531 1.2526 59.6068 2.3724 60.4922 3.64844C61.4036 4.97656 61.8594 6.78646 61.8594 9.07812V21.6172C61.8594 24.1172 61.3125 26.0182 60.2188 27.3203C59.2031 28.5182 57.6276 29.5599 55.4922 30.4453Z" fill="#60C9DD"/>
<path d="M7.875 15.4062C8.99479 14.9375 9.67188 14.5599 9.90625 14.2734C10.1406 13.9609 10.2708 13.5573 10.2969 13.0625V9.3125C10.2969 4.88542 11.3646 2.125 13.5 1.03125C14.4896 0.536458 15.9609 0.289062 17.9141 0.289062V4.19531C16.7161 4.19531 15.9479 4.65104 15.6094 5.5625C15.401 6.26562 15.2839 7.97135 15.2578 10.6797V14.0391C15.2057 14.6641 14.6328 15.1198 13.5391 15.4062C14.6589 15.7969 15.2318 16.3698 15.2578 17.125V20.9141C15.2578 23.7526 15.5573 25.4714 16.1562 26.0703C16.5469 26.4349 17.1328 26.6172 17.9141 26.6172V30.4844C15.7526 30.4583 14.2682 30.276 13.4609 29.9375C11.5859 29.1042 10.5443 26.8125 10.3359 23.0625C10.3099 22.5677 10.2969 22.0469 10.2969 21.5V17.6719C10.2969 17.0208 9.89323 16.474 9.08594 16.0312C8.98177 15.9531 8.78646 15.849 8.5 15.7188C8.21354 15.5885 8.00521 15.4844 7.875 15.4062ZM44.0859 30.4844V26.6172C45.2057 26.6172 45.9349 26.2135 46.2734 25.4062C46.5859 24.599 46.7422 23.0885 46.7422 20.875V17.125C46.7943 16.3438 47.3672 15.7708 48.4609 15.4062C47.3411 15.1198 46.7682 14.651 46.7422 14V10.6797C46.7161 7.86719 46.5859 6.13542 46.3516 5.48438C45.9609 4.625 45.2057 4.19531 44.0859 4.19531V0.289062C46.612 0.289062 48.4089 0.757812 49.4766 1.69531C50.9609 3.04948 51.7031 5.58854 51.7031 9.3125V13.0625C51.7292 13.8958 52.1458 14.5078 52.9531 14.8984C53.1094 14.9766 53.5 15.1458 54.125 15.4062C52.9792 16.0052 52.3411 16.3568 52.2109 16.4609C51.8724 16.7995 51.7031 17.2031 51.7031 17.6719V21.5C51.7031 25.9792 50.6745 28.7396 48.6172 29.7812C47.6797 30.25 46.1693 30.4844 44.0859 30.4844Z" fill="#8DBE2C"/>
<path d="M19.8672 26.2656C19.8672 25.0938 20.375 24.2214 21.3906 23.6484C21.8333 23.4141 22.3021 23.2969 22.7969 23.2969C23.9688 23.2969 24.8281 23.8047 25.375 24.8203C25.6094 25.263 25.7266 25.7448 25.7266 26.2656C25.7266 27.4635 25.2057 28.3229 24.1641 28.8438C23.7214 29.0781 23.2656 29.1953 22.7969 29.1953C21.599 29.1953 20.7396 28.6745 20.2188 27.6328C19.9844 27.1901 19.8672 26.7344 19.8672 26.2656ZM28.0703 26.2656C28.0703 25.0938 28.5781 24.2214 29.5938 23.6484C30.0365 23.4141 30.5052 23.2969 31 23.2969C32.1719 23.2969 33.0312 23.8047 33.5781 24.8203C33.8125 25.263 33.9297 25.7448 33.9297 26.2656C33.9297 27.4635 33.4089 28.3229 32.3672 28.8438C31.9245 29.0781 31.4688 29.1953 31 29.1953C29.8021 29.1953 28.9427 28.6745 28.4219 27.6328C28.1875 27.1901 28.0703 26.7344 28.0703 26.2656ZM36.2734 26.2656C36.2734 25.0938 36.7812 24.2214 37.7969 23.6484C38.2396 23.4141 38.7083 23.2969 39.2031 23.2969C40.375 23.2969 41.2344 23.8047 41.7812 24.8203C42.0156 25.263 42.1328 25.7448 42.1328 26.2656C42.1328 27.4635 41.612 28.3229 40.5703 28.8438C40.1276 29.0781 39.6719 29.1953 39.2031 29.1953C38.0052 29.1953 37.1458 28.6745 36.625 27.6328C36.3906 27.1901 36.2734 26.7344 36.2734 26.2656Z" fill="#B0B0B0"/>
</svg>
