<svg width="80" height="80" viewBox="0 0 80 80" fill="none" xmlns="http://www.w3.org/2000/svg">
<rect width="80" height="80" rx="40" fill="#3F1340"/>
<path d="M9.14062 47.6172C9.14062 50.1172 9.6875 52.0182 10.7812 53.3203C11.7969 54.5182 13.3724 55.5599 15.5078 56.4453V53.0078C14.362 52.3047 13.6458 51.2109 13.3594 49.7266C13.2292 48.9974 13.1641 48.125 13.1641 47.1094V34.6484C13.1901 32.487 13.776 30.9635 14.9219 30.0781C15.1302 29.9219 15.3255 29.7917 15.5078 29.6875L15.4688 26.2891C13.0469 27.2526 11.3932 28.3724 10.5078 29.6484C9.59635 30.9766 9.14062 32.7865 9.14062 35.0781V47.6172ZM64.4922 56.4453V53.0078C65.638 52.3047 66.3542 51.2109 66.6406 49.7266C66.7708 48.9974 66.8359 48.125 66.8359 47.1094V34.6484C66.8099 32.487 66.224 30.9635 65.0781 30.0781C64.8698 29.9219 64.6745 29.7917 64.4922 29.6875L64.5312 26.2891C66.9531 27.2526 68.6068 28.3724 69.4922 29.6484C70.4036 30.9766 70.8594 32.7865 70.8594 35.0781V47.6172C70.8594 50.1172 70.3125 52.0182 69.2188 53.3203C68.2031 54.5182 66.6276 55.5599 64.4922 56.4453Z" fill="#60C9DD"/>
<path d="M16.875 41.4062C17.9948 40.9375 18.6719 40.5599 18.9062 40.2734C19.1406 39.9609 19.2708 39.5573 19.2969 39.0625V35.3125C19.2969 30.8854 20.3646 28.125 22.5 27.0312C23.4896 26.5365 24.9609 26.2891 26.9141 26.2891V30.1953C25.7161 30.1953 24.9479 30.651 24.6094 31.5625C24.401 32.2656 24.2839 33.9714 24.2578 36.6797V40.0391C24.2057 40.6641 23.6328 41.1198 22.5391 41.4062C23.6589 41.7969 24.2318 42.3698 24.2578 43.125V46.9141C24.2578 49.7526 24.5573 51.4714 25.1562 52.0703C25.5469 52.4349 26.1328 52.6172 26.9141 52.6172V56.4844C24.7526 56.4583 23.2682 56.276 22.4609 55.9375C20.5859 55.1042 19.5443 52.8125 19.3359 49.0625C19.3099 48.5677 19.2969 48.0469 19.2969 47.5V43.6719C19.2969 43.0208 18.8932 42.474 18.0859 42.0312C17.9818 41.9531 17.7865 41.849 17.5 41.7188C17.2135 41.5885 17.0052 41.4844 16.875 41.4062ZM53.0859 56.4844V52.6172C54.2057 52.6172 54.9349 52.2135 55.2734 51.4062C55.5859 50.599 55.7422 49.0885 55.7422 46.875V43.125C55.7943 42.3438 56.3672 41.7708 57.4609 41.4062C56.3411 41.1198 55.7682 40.651 55.7422 40V36.6797C55.7161 33.8672 55.5859 32.1354 55.3516 31.4844C54.9609 30.625 54.2057 30.1953 53.0859 30.1953V26.2891C55.612 26.2891 57.4089 26.7578 58.4766 27.6953C59.9609 29.0495 60.7031 31.5885 60.7031 35.3125V39.0625C60.7292 39.8958 61.1458 40.5078 61.9531 40.8984C62.1094 40.9766 62.5 41.1458 63.125 41.4062C61.9792 42.0052 61.3411 42.3568 61.2109 42.4609C60.8724 42.7995 60.7031 43.2031 60.7031 43.6719V47.5C60.7031 51.9792 59.6745 54.7396 57.6172 55.7812C56.6797 56.25 55.1693 56.4844 53.0859 56.4844Z" fill="#8DBE2C"/>
<path d="M28.8672 52.2656C28.8672 51.0938 29.375 50.2214 30.3906 49.6484C30.8333 49.4141 31.3021 49.2969 31.7969 49.2969C32.9688 49.2969 33.8281 49.8047 34.375 50.8203C34.6094 51.263 34.7266 51.7448 34.7266 52.2656C34.7266 53.4635 34.2057 54.3229 33.1641 54.8438C32.7214 55.0781 32.2656 55.1953 31.7969 55.1953C30.599 55.1953 29.7396 54.6745 29.2188 53.6328C28.9844 53.1901 28.8672 52.7344 28.8672 52.2656ZM37.0703 52.2656C37.0703 51.0938 37.5781 50.2214 38.5938 49.6484C39.0365 49.4141 39.5052 49.2969 40 49.2969C41.1719 49.2969 42.0312 49.8047 42.5781 50.8203C42.8125 51.263 42.9297 51.7448 42.9297 52.2656C42.9297 53.4635 42.4089 54.3229 41.3672 54.8438C40.9245 55.0781 40.4688 55.1953 40 55.1953C38.8021 55.1953 37.9427 54.6745 37.4219 53.6328C37.1875 53.1901 37.0703 52.7344 37.0703 52.2656ZM45.2734 52.2656C45.2734 51.0938 45.7812 50.2214 46.7969 49.6484C47.2396 49.4141 47.7083 49.2969 48.2031 49.2969C49.375 49.2969 50.2344 49.8047 50.7812 50.8203C51.0156 51.263 51.1328 51.7448 51.1328 52.2656C51.1328 53.4635 50.612 54.3229 49.5703 54.8438C49.1276 55.0781 48.6719 55.1953 48.2031 55.1953C47.0052 55.1953 46.1458 54.6745 45.625 53.6328C45.3906 53.1901 45.2734 52.7344 45.2734 52.2656Z" fill="#DDDDDD"/>
</svg>
