<svg width="72" height="50" viewBox="0 0 72 50" fill="none" xmlns="http://www.w3.org/2000/svg">
<path d="M6.96875 33.6172C6.96875 36.1172 7.51562 38.0182 8.60938 39.3203C9.625 40.5182 11.2005 41.5599 13.3359 42.4453V39.0078C12.1901 38.3047 11.474 37.2109 11.1875 35.7266C11.0573 34.9974 10.9922 34.125 10.9922 33.1094V20.6484C11.0182 18.487 11.6042 16.9635 12.75 16.0781C12.9583 15.9219 13.1536 15.7917 13.3359 15.6875L13.2969 12.2891C10.875 13.2526 9.22135 14.3724 8.33594 15.6484C7.42448 16.9766 6.96875 18.7865 6.96875 21.0781V33.6172ZM64.6641 42.4453V39.0078C65.8099 38.3047 66.526 37.2109 66.8125 35.7266C66.9427 34.9974 67.0078 34.125 67.0078 33.1094V20.6484C66.9818 18.487 66.3958 16.9635 65.25 16.0781C65.0417 15.9219 64.8464 15.7917 64.6641 15.6875L64.7031 12.2891C67.125 13.2526 68.7786 14.3724 69.6641 15.6484C70.5755 16.9766 71.0312 18.7865 71.0312 21.0781V33.6172C71.0312 36.1172 70.4844 38.0182 69.3906 39.3203C68.375 40.5182 66.7995 41.5599 64.6641 42.4453Z" fill="#60C9DD"/>
<path d="M14.7031 27.4062C15.8229 26.9375 16.5 26.5599 16.7344 26.2734C16.9688 25.9609 17.099 25.5573 17.125 25.0625V21.3125C17.125 16.8854 18.1927 14.125 20.3281 13.0312C21.3177 12.5365 22.7891 12.2891 24.7422 12.2891V16.1953C23.5443 16.1953 22.776 16.651 22.4375 17.5625C22.2292 18.2656 22.112 19.9714 22.0859 22.6797V26.0391C22.0339 26.6641 21.4609 27.1198 20.3672 27.4062C21.487 27.7969 22.0599 28.3698 22.0859 29.125V32.9141C22.0859 35.7526 22.3854 37.4714 22.9844 38.0703C23.375 38.4349 23.9609 38.6172 24.7422 38.6172V42.4844C22.5807 42.4583 21.0964 42.276 20.2891 41.9375C18.4141 41.1042 17.3724 38.8125 17.1641 35.0625C17.138 34.5677 17.125 34.0469 17.125 33.5V29.6719C17.125 29.0208 16.7214 28.474 15.9141 28.0312C15.8099 27.9531 15.6146 27.849 15.3281 27.7188C15.0417 27.5885 14.8333 27.4844 14.7031 27.4062ZM53.2578 42.4844V38.6172C54.3776 38.6172 55.1068 38.2135 55.4453 37.4062C55.7578 36.599 55.9141 35.0885 55.9141 32.875V29.125C55.9661 28.3438 56.5391 27.7708 57.6328 27.4062C56.513 27.1198 55.9401 26.651 55.9141 26V22.6797C55.888 19.8672 55.7578 18.1354 55.5234 17.4844C55.1328 16.625 54.3776 16.1953 53.2578 16.1953V12.2891C55.7839 12.2891 57.5807 12.7578 58.6484 13.6953C60.1328 15.0495 60.875 17.5885 60.875 21.3125V25.0625C60.901 25.8958 61.3177 26.5078 62.125 26.8984C62.2812 26.9766 62.6719 27.1458 63.2969 27.4062C62.151 28.0052 61.513 28.3568 61.3828 28.4609C61.0443 28.7995 60.875 29.2031 60.875 29.6719V33.5C60.875 37.9792 59.8464 40.7396 57.7891 41.7812C56.8516 42.25 55.3411 42.4844 53.2578 42.4844Z" fill="#8DBE2C"/>
<path d="M30.0938 27.8125C30.0938 26.875 30.5 26.1771 31.3125 25.7188C31.6667 25.5312 32.0417 25.4375 32.4375 25.4375C33.375 25.4375 34.0625 25.8438 34.5 26.6562C34.6875 27.0104 34.7812 27.3958 34.7812 27.8125C34.7812 28.7708 34.3646 29.4583 33.5312 29.875C33.1771 30.0625 32.8125 30.1562 32.4375 30.1562C31.4792 30.1562 30.7917 29.7396 30.375 28.9062C30.1875 28.5521 30.0938 28.1875 30.0938 27.8125ZM36.6562 27.8125C36.6562 26.875 37.0625 26.1771 37.875 25.7188C38.2292 25.5312 38.6042 25.4375 39 25.4375C39.9375 25.4375 40.625 25.8438 41.0625 26.6562C41.25 27.0104 41.3438 27.3958 41.3438 27.8125C41.3438 28.7708 40.9271 29.4583 40.0938 29.875C39.7396 30.0625 39.375 30.1562 39 30.1562C38.0417 30.1562 37.3542 29.7396 36.9375 28.9062C36.75 28.5521 36.6562 28.1875 36.6562 27.8125ZM43.2188 27.8125C43.2188 26.875 43.625 26.1771 44.4375 25.7188C44.7917 25.5312 45.1667 25.4375 45.5625 25.4375C46.5 25.4375 47.1875 25.8438 47.625 26.6562C47.8125 27.0104 47.9062 27.3958 47.9062 27.8125C47.9062 28.7708 47.4896 29.4583 46.6562 29.875C46.3021 30.0625 45.9375 30.1562 45.5625 30.1562C44.6042 30.1562 43.9167 29.7396 43.5 28.9062C43.3125 28.5521 43.2188 28.1875 43.2188 27.8125Z" fill="#B0B0B0"/>
</svg>
